<svg width="90" height="92" viewBox="0 0 90 92" fill="none" xmlns="http://www.w3.org/2000/svg">
<rect width="90" height="90" rx="10" fill="url(#paint0_linear_104_199)"/>
<g filter="url(#filter0_f_104_199)">
<path d="M43.573 7L6 49.8475L43.573 86L82 47.6158L43.573 7Z" stroke="#1E518B" stroke-opacity="0.25" stroke-width="5"/>
</g>
<path d="M42.573 8L5 50.3051L42.573 86L81 48.1017L42.573 8Z" stroke="#A4F2EA" stroke-opacity="0.7" stroke-width="2"/>
<rect width="90" height="90" rx="10" fill="url(#paint1_linear_104_199)"/>
<g filter="url(#filter1_f_104_199)">
<path d="M43.573 6L6 48.8475L43.573 85L82 46.6158L43.573 6Z" stroke="#1E518B" stroke-opacity="0.25" stroke-width="5"/>
</g>
<path d="M42.573 6L5 48.3051L42.573 84L81 46.1017L42.573 6Z" stroke="#A4F2EA" stroke-opacity="0.7" stroke-width="2"/>
<defs>
<filter id="filter0_f_104_199" x="0.546631" y="1.28809" width="86.9417" height="90.2129" filterUnits="userSpaceOnUse" color-interpolation-filters="sRGB">
<feFlood flood-opacity="0" result="BackgroundImageFix"/>
<feBlend mode="normal" in="SourceGraphic" in2="BackgroundImageFix" result="shape"/>
<feGaussianBlur stdDeviation="1" result="effect1_foregroundBlur_104_199"/>
</filter>
<filter id="filter1_f_104_199" x="0.546631" y="0.288086" width="86.9417" height="90.2129" filterUnits="userSpaceOnUse" color-interpolation-filters="sRGB">
<feFlood flood-opacity="0" result="BackgroundImageFix"/>
<feBlend mode="normal" in="SourceGraphic" in2="BackgroundImageFix" result="shape"/>
<feGaussianBlur stdDeviation="1" result="effect1_foregroundBlur_104_199"/>
</filter>
<linearGradient id="paint0_linear_104_199" x1="42.6563" y1="1.40625" x2="41.7188" y2="90" gradientUnits="userSpaceOnUse">
<stop stop-color="#469C97"/>
<stop offset="1" stop-color="#B0E8BD"/>
</linearGradient>
<linearGradient id="paint1_linear_104_199" x1="42.6563" y1="1.40625" x2="41.7188" y2="90" gradientUnits="userSpaceOnUse">
<stop stop-color="#469C97"/>
<stop offset="1" stop-color="#B0E8BD"/>
</linearGradient>
</defs>
</svg>
