<svg width="93" height="90" viewBox="0 0 93 90" fill="none" xmlns="http://www.w3.org/2000/svg">
<g filter="url(#filter0_f_117_259)">
<path d="M42 75.6885C42 75.6885 41.6197 80.3448 39.1913 82.1803C36.1907 84.4483 33.1218 84.6279 29.9627 82.5409C25.7942 79.7871 29.5615 71 29.5615 71" stroke="#AFAFAF" stroke-width="3"/>
</g>
<rect x="2" width="90" height="90" rx="10" fill="url(#paint0_linear_117_259)"/>
<g filter="url(#filter1_f_117_259)">
<path d="M33.5723 40.5818C33.5723 40.5818 30.4767 38.2671 28.391 38.7968C26.6968 39.2272 25.5478 40.1061 25.2024 41.6528C24.7622 43.6245 26.7565 44.5586 28.391 45.9368C29.3659 46.7588 30.0914 47.0247 31.1809 47.7218M84.9883 55.9327C84.9883 55.9327 80.8402 56.2881 78.2316 55.9327C74.4238 55.4139 72.2554 54.6251 69.0446 52.7197C64.5255 50.0379 60.2762 43.0808 60.2762 43.0808L53.102 32.0139L48.7178 23.089C48.7178 23.089 46.0293 18.2132 43.5364 15.592C41.6081 13.5645 37.9565 10.9511 37.9565 10.9511C37.9565 10.9511 34.7263 8.88506 32.3766 8.0951C30.4324 7.44147 29.2691 7.12102 27.1953 7.02411C24.512 6.89871 22.9411 7.26344 20.4197 8.0951C18.0645 8.87193 16.7769 9.52182 14.8397 10.9511C12.7938 12.4605 11.9701 13.6436 10.4555 15.592C9.02147 17.4369 8.13701 18.4814 7.267 20.59C6.44163 22.5904 5.77597 23.8288 6.0713 25.945C6.25445 27.2574 6.46418 28.0479 7.267 29.1579C8.41802 30.7494 9.66287 31.3628 11.6512 32.0139C14.1364 32.8277 15.9127 32.7529 18.4268 32.0139C19.9494 31.5663 22.0139 30.2289 22.0139 30.2289L20.4197 34.5129L18.4268 38.7968L16.0354 44.5088V47.7218C16.0354 47.7218 16.0554 52.0057 16.0554 53.0767C16.0554 54.1477 16.0354 58.4317 18.4268 62.3586C20.8182 66.2856 22.0338 66.6426 22.4324 66.9996C22.831 67.3566 25.7387 69.3039 26.8166 69.8556C29.6066 71.2836 29.3417 71.0747 32.3766 71.9976C35.5105 72.9506 39.9693 72.3546 40.7664 73.0686C41.5635 73.7825 43.5364 78.4235 43.5364 78.4235C43.5364 78.4235 44.5844 82.8981 47.1235 83.7785C49.3439 84.5483 53.1219 83.0645 53.1219 83.0645C53.1219 83.0645 56.361 82.2723 57.4862 80.9225C58.883 79.2468 57.4862 77.6588 57.4862 75.5675C57.4862 74.1734 57.0021 73.3226 57.4862 71.9976C58.8252 68.3328 64.1932 71.1523 68.2475 69.8556C72.1813 68.5973 77.8147 65.5716 77.8147 65.5716C77.8147 65.5716 83.6507 62.3254 85.7843 59.1457C87.918 55.966 86.9817 55.9327 84.9883 55.9327Z" stroke="#AFAFAF" stroke-width="3"/>
</g>
<g filter="url(#filter2_f_117_259)">
<path d="M18 37.9166C18 37.9166 16.3595 37.2839 15.2523 37.1468C13.2519 36.899 11.85 36.8544 10.1494 37.9166C9.23515 38.4877 8.5295 38.8329 8.18673 39.8412C7.94435 40.5543 7.93125 41.0572 8.18673 41.7659C8.62627 42.985 9.42403 43.7744 10.5419 44.4603C12.2854 45.5301 15.6448 46 15.6448 46" stroke="#AFAFAF" stroke-width="3"/>
</g>
<g filter="url(#filter3_f_117_259)">
<mask id="path-5-inside-1_117_259" fill="white">
<ellipse cx="2" cy="1.5" rx="2" ry="1.5" transform="matrix(-1 0 0 1 22 18)"/>
</mask>
<ellipse cx="2" cy="1.5" rx="2" ry="1.5" transform="matrix(-1 0 0 1 22 18)" fill="black"/>
<path d="M21 19.5C21 18.7582 20.5921 18.3154 20.3858 18.1607C20.1804 18.0066 20.0341 18 20 18V24C18.8614 24 17.7151 23.6576 16.7858 22.9607C15.8556 22.263 15 21.0702 15 19.5H21ZM20 18C19.9659 18 19.8196 18.0066 19.6142 18.1607C19.4079 18.3154 19 18.7582 19 19.5H25C25 21.0702 24.1444 22.263 23.2142 22.9607C22.2849 23.6576 21.1386 24 20 24V18ZM19 19.5C19 20.2418 19.4079 20.6846 19.6142 20.8393C19.8196 20.9934 19.9659 21 20 21V15C21.1386 15 22.2849 15.3424 23.2142 16.0393C24.1444 16.737 25 17.9298 25 19.5H19ZM20 21C20.0341 21 20.1804 20.9934 20.3858 20.8393C20.5921 20.6846 21 20.2418 21 19.5H15C15 17.9298 15.8556 16.737 16.7858 16.0393C17.7151 15.3424 18.8614 15 20 15V21Z" fill="#AFAFAF" mask="url(#path-5-inside-1_117_259)"/>
</g>
<path d="M42.5 76C42.5 76 41.6197 80.3448 39.1914 82.1803C36.1907 84.4483 33.1218 84.6279 29.9628 82.5409C25.7943 79.7871 29.5616 71 29.5616 71" stroke="white"/>
<path d="M33.5723 40.5818C33.5723 40.5818 30.4767 38.2671 28.391 38.7968C26.6968 39.2272 25.5478 40.1061 25.2024 41.6528C24.7622 43.6245 26.7565 44.5586 28.391 45.9368C29.3659 46.7588 30.0914 47.0247 31.1809 47.7218M84.9883 55.9327C84.9883 55.9327 80.8402 56.2881 78.2316 55.9327C74.4238 55.4139 72.2554 54.6251 69.0446 52.7197C64.5255 50.0379 60.2762 43.0808 60.2762 43.0808L53.102 32.0139L48.7178 23.089C48.7178 23.089 46.0293 18.2132 43.5364 15.592C41.6081 13.5645 37.9565 10.9511 37.9565 10.9511C37.9565 10.9511 34.7263 8.88506 32.3766 8.0951C30.4324 7.44147 29.2691 7.12102 27.1953 7.02411C24.512 6.89871 22.9411 7.26344 20.4197 8.0951C18.0645 8.87193 16.7769 9.52182 14.8397 10.9511C12.7938 12.4605 11.9701 13.6436 10.4555 15.592C9.02147 17.4369 8.13701 18.4814 7.267 20.59C6.44163 22.5904 5.77597 23.8288 6.0713 25.945C6.25445 27.2574 6.46418 28.0479 7.267 29.1579C8.41802 30.7494 9.66287 31.3628 11.6512 32.0139C14.1364 32.8277 15.9127 32.7529 18.4268 32.0139C19.9494 31.5663 22.0139 30.2289 22.0139 30.2289L20.4197 34.5129L18.4268 38.7968C18.4268 38.7968 16.0354 43.5185 16.0354 45.9368C16.0354 47.7218 16.0354 47.7218 16.0354 47.7218C16.0354 47.7218 16.0554 52.0057 16.0554 53.0767C16.0554 54.1477 16.0354 58.4317 18.4268 62.3586C20.8182 66.2856 22.0338 66.6426 22.4324 66.9996C22.831 67.3566 25.7387 69.3039 26.8166 69.8556C29.6066 71.2836 29.3417 71.0747 32.3766 71.9976C35.5105 72.9506 39.9693 72.3546 40.7664 73.0686C41.5635 73.7825 43.5364 78.4235 43.5364 78.4235C43.5364 78.4235 44.5844 82.8981 47.1235 83.7785C49.3439 84.5483 53.1219 83.0645 53.1219 83.0645C53.1219 83.0645 56.361 82.2723 57.4862 80.9225C58.883 79.2468 57.4862 77.6588 57.4862 75.5675C57.4862 74.1734 57.0021 73.3226 57.4862 71.9976C58.8252 68.3328 64.1932 71.1523 68.2475 69.8556C72.1813 68.5973 77.8147 65.5716 77.8147 65.5716C77.8147 65.5716 83.6507 62.3254 85.7843 59.1457C87.918 55.966 86.9817 55.9327 84.9883 55.9327Z" stroke="white"/>
<path d="M19 37.9168L15.9775 37.147C15.9775 37.147 11.9083 36.3802 10 37.5C9.02585 38.0717 8.58245 38.8331 8.2054 39.8415C7.93878 40.5545 7.92438 41.0574 8.2054 41.7661C8.68889 42.9852 9.56643 43.7746 10.7961 44.4605C12.7139 45.5303 16.4093 46.0002 16.4093 46.0002" stroke="white"/>
<circle cx="1.5" cy="1.5" r="1.5" transform="matrix(-1 0 0 1 22 18)" fill="white"/>
<defs>
<filter id="filter0_f_117_259" x="22.5" y="66.4097" width="24.9951" height="23.0903" filterUnits="userSpaceOnUse" color-interpolation-filters="sRGB">
<feFlood flood-opacity="0" result="BackgroundImageFix"/>
<feBlend mode="normal" in="SourceGraphic" in2="BackgroundImageFix" result="shape"/>
<feGaussianBlur stdDeviation="2" result="effect1_foregroundBlur_117_259"/>
</filter>
<filter id="filter1_f_117_259" x="0.501465" y="1.50024" width="91.999" height="87.9995" filterUnits="userSpaceOnUse" color-interpolation-filters="sRGB">
<feFlood flood-opacity="0" result="BackgroundImageFix"/>
<feBlend mode="normal" in="SourceGraphic" in2="BackgroundImageFix" result="shape"/>
<feGaussianBlur stdDeviation="2" result="effect1_foregroundBlur_117_259"/>
</filter>
<filter id="filter2_f_117_259" x="2.5" y="31.4998" width="20.0396" height="19.9858" filterUnits="userSpaceOnUse" color-interpolation-filters="sRGB">
<feFlood flood-opacity="0" result="BackgroundImageFix"/>
<feBlend mode="normal" in="SourceGraphic" in2="BackgroundImageFix" result="shape"/>
<feGaussianBlur stdDeviation="2" result="effect1_foregroundBlur_117_259"/>
</filter>
<filter id="filter3_f_117_259" x="14" y="14" width="12" height="11" filterUnits="userSpaceOnUse" color-interpolation-filters="sRGB">
<feFlood flood-opacity="0" result="BackgroundImageFix"/>
<feBlend mode="normal" in="SourceGraphic" in2="BackgroundImageFix" result="shape"/>
<feGaussianBlur stdDeviation="2" result="effect1_foregroundBlur_117_259"/>
</filter>
<linearGradient id="paint0_linear_117_259" x1="-55.3626" y1="-55.3125" x2="81.7849" y2="89.3706" gradientUnits="userSpaceOnUse">
<stop stop-color="#787878"/>
<stop offset="1" stop-color="#303030"/>
</linearGradient>
</defs>
</svg>
