<svg width="93" height="89" viewBox="0 0 93 89" fill="none" xmlns="http://www.w3.org/2000/svg">
<g filter="url(#filter0_f_117_259)">
<path d="M51 74.6885C51 74.6885 51.3803 79.3448 53.8087 81.1803C56.8093 83.4483 59.8782 83.6279 63.0373 81.5409C67.2058 78.7871 63.4385 70 63.4385 70" stroke="#AFAFAF" stroke-width="3"/>
</g>
<g filter="url(#filter1_f_117_259)">
<path d="M59.4277 39.5818C59.4277 39.5818 62.5233 37.2671 64.609 37.7968C66.3032 38.2272 67.4522 39.1061 67.7976 40.6528C68.2378 42.6245 66.2435 43.5586 64.609 44.9368C63.6341 45.7588 62.9086 46.0247 61.8191 46.7218M8.01166 54.9327C8.01166 54.9327 12.1598 55.2881 14.7684 54.9327C18.5762 54.4139 20.7446 53.6251 23.9554 51.7197C28.4745 49.0379 32.7238 42.0808 32.7238 42.0808L39.898 31.0139L44.2822 22.089C44.2822 22.089 46.9707 17.2132 49.4636 14.592C51.3919 12.5645 55.0435 9.95108 55.0435 9.95108C55.0435 9.95108 58.2737 7.88506 60.6234 7.0951C62.5676 6.44147 63.7309 6.12102 65.8047 6.02411C68.488 5.89871 70.0589 6.26344 72.5803 7.0951C74.9355 7.87193 76.2231 8.52182 78.1603 9.95108C80.2062 11.4605 81.0299 12.6436 82.5445 14.592C83.9785 16.4369 84.863 17.4814 85.733 19.59C86.5584 21.5904 87.224 22.8288 86.9287 24.945C86.7455 26.2574 86.5358 27.0479 85.733 28.1579C84.582 29.7494 83.3371 30.3628 81.3488 31.0139C78.8636 31.8277 77.0873 31.7529 74.5732 31.0139C73.0506 30.5663 70.9861 29.2289 70.9861 29.2289L72.5803 33.5129L74.5732 37.7968L76.9646 43.5088V46.7218C76.9646 46.7218 76.9446 51.0057 76.9446 52.0767C76.9446 53.1477 76.9646 57.4317 74.5732 61.3586C72.1818 65.2856 70.9662 65.6426 70.5676 65.9996C70.169 66.3566 67.2613 68.3039 66.1834 68.8556C63.3934 70.2836 63.6583 70.0747 60.6234 70.9976C57.4895 71.9506 53.0307 71.3546 52.2336 72.0686C51.4365 72.7825 49.4636 77.4235 49.4636 77.4235C49.4636 77.4235 48.4156 81.8981 45.8765 82.7785C43.6561 83.5483 39.8781 82.0645 39.8781 82.0645C39.8781 82.0645 36.639 81.2723 35.5138 79.9225C34.117 78.2468 35.5138 76.6588 35.5138 74.5675C35.5138 73.1734 35.9979 72.3226 35.5138 70.9976C34.1748 67.3328 28.8068 70.1523 24.7525 68.8556C20.8187 67.5973 15.1853 64.5716 15.1853 64.5716C15.1853 64.5716 9.34934 61.3254 7.21565 58.1457C5.08197 54.966 6.01827 54.9327 8.01166 54.9327Z" stroke="#AFAFAF" stroke-width="3"/>
</g>
<g filter="url(#filter2_f_117_259)">
<path d="M75 36.9166C75 36.9166 76.6405 36.2839 77.7477 36.1468C79.7481 35.899 81.15 35.8544 82.8506 36.9166C83.7649 37.4877 84.4705 37.8329 84.8133 38.8412C85.0557 39.5543 85.0687 40.0572 84.8133 40.7659C84.3737 41.985 83.576 42.7744 82.4581 43.4603C80.7146 44.5301 77.3552 45 77.3552 45" stroke="#AFAFAF" stroke-width="3"/>
</g>
<g filter="url(#filter3_f_117_259)">
<mask id="path-4-inside-1_117_259" fill="white">
<ellipse cx="73" cy="18.5" rx="2" ry="1.5"/>
</mask>
<ellipse cx="73" cy="18.5" rx="2" ry="1.5" fill="black"/>
<path d="M72 18.5C72 17.7582 72.4079 17.3154 72.6142 17.1607C72.8196 17.0066 72.9659 17 73 17V23C74.1386 23 75.2849 22.6576 76.2142 21.9607C77.1444 21.263 78 20.0702 78 18.5H72ZM73 17C73.0341 17 73.1804 17.0066 73.3858 17.1607C73.5921 17.3154 74 17.7582 74 18.5H68C68 20.0702 68.8556 21.263 69.7858 21.9607C70.7151 22.6576 71.8614 23 73 23V17ZM74 18.5C74 19.2418 73.5921 19.6846 73.3858 19.8393C73.1804 19.9934 73.0341 20 73 20V14C71.8614 14 70.7151 14.3424 69.7858 15.0393C68.8556 15.737 68 16.9298 68 18.5H74ZM73 20C72.9659 20 72.8196 19.9934 72.6142 19.8393C72.4079 19.6846 72 19.2418 72 18.5H78C78 16.9298 77.1444 15.737 76.2142 15.0393C75.2849 14.3424 74.1386 14 73 14V20Z" fill="#AFAFAF" mask="url(#path-4-inside-1_117_259)"/>
</g>
<path d="M50.5 75C50.5 75 51.3803 79.3448 53.8086 81.1803C56.8093 83.4483 59.8782 83.6279 63.0372 81.5409C67.2057 78.7871 63.4384 70 63.4384 70" stroke="white"/>
<path d="M59.4277 39.5818C59.4277 39.5818 62.5233 37.2671 64.609 37.7968C66.3032 38.2272 67.4522 39.1061 67.7976 40.6528C68.2378 42.6245 66.2435 43.5586 64.609 44.9368C63.6341 45.7588 62.9086 46.0247 61.8191 46.7218M8.01166 54.9327C8.01166 54.9327 12.1598 55.2881 14.7684 54.9327C18.5762 54.4139 20.7446 53.6251 23.9554 51.7197C28.4745 49.0379 32.7238 42.0808 32.7238 42.0808L39.898 31.0139L44.2822 22.089C44.2822 22.089 46.9707 17.2132 49.4636 14.592C51.3919 12.5645 55.0435 9.95108 55.0435 9.95108C55.0435 9.95108 58.2737 7.88506 60.6234 7.0951C62.5676 6.44147 63.7309 6.12102 65.8047 6.02411C68.488 5.89871 70.0589 6.26344 72.5803 7.0951C74.9355 7.87193 76.2231 8.52182 78.1603 9.95108C80.2062 11.4605 81.0299 12.6436 82.5445 14.592C83.9785 16.4369 84.863 17.4814 85.733 19.59C86.5584 21.5904 87.224 22.8288 86.9287 24.945C86.7455 26.2574 86.5358 27.0479 85.733 28.1579C84.582 29.7494 83.3371 30.3628 81.3488 31.0139C78.8636 31.8277 77.0873 31.7529 74.5732 31.0139C73.0506 30.5663 70.9861 29.2289 70.9861 29.2289L72.5803 33.5129L74.5732 37.7968C74.5732 37.7968 76.9646 42.5185 76.9646 44.9368C76.9646 46.7218 76.9646 46.7218 76.9646 46.7218C76.9646 46.7218 76.9446 51.0057 76.9446 52.0767C76.9446 53.1477 76.9646 57.4317 74.5732 61.3586C72.1818 65.2856 70.9662 65.6426 70.5676 65.9996C70.169 66.3566 67.2613 68.3039 66.1834 68.8556C63.3934 70.2836 63.6583 70.0747 60.6234 70.9976C57.4895 71.9506 53.0307 71.3546 52.2336 72.0686C51.4365 72.7825 49.4636 77.4235 49.4636 77.4235C49.4636 77.4235 48.4156 81.8981 45.8765 82.7785C43.6561 83.5483 39.8781 82.0645 39.8781 82.0645C39.8781 82.0645 36.639 81.2723 35.5138 79.9225C34.117 78.2468 35.5138 76.6588 35.5138 74.5675C35.5138 73.1734 35.9979 72.3226 35.5138 70.9976C34.1748 67.3328 28.8068 70.1523 24.7525 68.8556C20.8187 67.5973 15.1853 64.5716 15.1853 64.5716C15.1853 64.5716 9.34934 61.3254 7.21565 58.1457C5.08197 54.966 6.01827 54.9327 8.01166 54.9327Z" stroke="white"/>
<path d="M74 36.9168L77.0225 36.147C77.0225 36.147 81.0917 35.3802 83 36.5C83.9742 37.0717 84.4175 37.8331 84.7946 38.8415C85.0612 39.5545 85.0756 40.0574 84.7946 40.7661C84.3111 41.9852 83.4336 42.7746 82.2039 43.4605C80.2861 44.5303 76.5907 45.0002 76.5907 45.0002" stroke="white"/>
<circle cx="72.5" cy="19.5" r="1" fill="white" stroke="white"/>
<defs>
<filter id="filter0_f_117_259" x="45.5049" y="65.4097" width="24.9951" height="23.0903" filterUnits="userSpaceOnUse" color-interpolation-filters="sRGB">
<feFlood flood-opacity="0" result="BackgroundImageFix"/>
<feBlend mode="normal" in="SourceGraphic" in2="BackgroundImageFix" result="shape"/>
<feGaussianBlur stdDeviation="2" result="effect1_foregroundBlur_117_259"/>
</filter>
<filter id="filter1_f_117_259" x="0.499512" y="0.500244" width="91.999" height="87.9995" filterUnits="userSpaceOnUse" color-interpolation-filters="sRGB">
<feFlood flood-opacity="0" result="BackgroundImageFix"/>
<feBlend mode="normal" in="SourceGraphic" in2="BackgroundImageFix" result="shape"/>
<feGaussianBlur stdDeviation="2" result="effect1_foregroundBlur_117_259"/>
</filter>
<filter id="filter2_f_117_259" x="70.4604" y="30.4998" width="20.0396" height="19.9858" filterUnits="userSpaceOnUse" color-interpolation-filters="sRGB">
<feFlood flood-opacity="0" result="BackgroundImageFix"/>
<feBlend mode="normal" in="SourceGraphic" in2="BackgroundImageFix" result="shape"/>
<feGaussianBlur stdDeviation="2" result="effect1_foregroundBlur_117_259"/>
</filter>
<filter id="filter3_f_117_259" x="67" y="13" width="12" height="11" filterUnits="userSpaceOnUse" color-interpolation-filters="sRGB">
<feFlood flood-opacity="0" result="BackgroundImageFix"/>
<feBlend mode="normal" in="SourceGraphic" in2="BackgroundImageFix" result="shape"/>
<feGaussianBlur stdDeviation="2" result="effect1_foregroundBlur_117_259"/>
</filter>
</defs>
</svg>
