<svg width="418" height="880" viewBox="0 0 418 880" fill="none" xmlns="http://www.w3.org/2000/svg">
<g clip-path="url(#clip0_30_209)">
<rect width="418" height="880" fill="#1E1E1E"/>
<g opacity="0.1">
<path d="M1.39562 554.714C3.59905 552.561 6.27163 550.947 9.20356 550.001C12.1355 549.054 15.247 548.8 18.2936 549.258L175.718 572.27C181.181 573.067 186.223 575.657 190.053 579.632C193.883 583.608 196.283 588.743 196.876 594.231L217.292 767.24C217.901 772.4 221.764 776.461 227.136 777.589L227.233 777.616L268.666 786.699C284.493 789.993 296.022 802.968 298.001 819.741C298.862 826.556 298.07 833.479 295.692 839.924C293.314 846.369 289.42 852.147 284.34 856.77C277.806 862.805 269.534 866.622 260.703 867.679C256.082 868.216 251.403 868 246.851 867.039L246.548 866.974L229.112 862.868C221.573 861.303 214.714 857.418 209.496 851.757C204.277 846.096 200.962 838.944 200.013 831.304L180.863 669.012C180.204 663.431 176.018 659.33 170.193 658.574L170.026 658.547L32.1293 638.618C31.6638 638.555 31.1901 638.598 30.7441 638.746C30.2982 638.894 29.892 639.141 29.5564 639.47C29.2207 639.799 28.9646 640.2 28.8076 640.642C28.6506 641.085 28.5968 641.558 28.6503 642.025L41.4714 750.676C42.0811 755.843 45.8432 759.769 51.3025 760.91L51.502 760.956L92.0956 770.223C99.9658 771.821 107.124 775.881 112.533 781.816C117.943 787.752 121.324 795.254 122.188 803.238C123.064 810.073 122.281 817.017 119.906 823.485C117.53 829.953 113.633 835.754 108.542 840.398C103.562 844.976 97.5515 848.288 91.0204 850.051C84.4893 851.815 77.6294 851.979 71.0213 850.53L70.7349 850.471L53.2976 846.358C45.7602 844.794 38.9014 840.91 33.6831 835.25C28.4649 829.591 25.1489 822.44 24.2003 814.801L-4.51856 571.425C-4.89575 568.371 -4.55778 565.272 -3.53138 562.372C-2.50495 559.472 -0.818211 556.85 1.39562 554.714Z" fill="black"/>
</g>
<g opacity="0.1" clip-path="url(#clip1_30_209)">
<path d="M440.152 350.457C439.154 348.091 437.621 345.988 435.673 344.314C433.726 342.639 431.417 341.439 428.927 340.808L300.511 307.66C296.056 306.509 291.344 306.871 287.117 308.689C282.89 310.508 279.387 313.679 277.159 317.705L205.604 444.076C203.47 447.845 199.189 449.718 194.696 448.851L194.613 448.841L159.838 442.441C146.611 439.862 133.561 446.112 126.624 458.363C123.761 463.323 122.135 468.899 121.881 474.62C121.627 480.341 122.754 486.039 125.166 491.233C128.238 497.98 133.363 503.585 139.809 507.248C143.187 509.153 146.852 510.498 150.661 511.23L150.915 511.277L165.641 513.752C171.94 514.984 178.466 514.212 184.304 511.547C190.143 508.882 195 504.456 198.196 498.89L265.319 380.348C267.627 376.272 272.169 374.472 276.89 375.772L277.026 375.804L389.439 405.016C389.817 405.118 390.167 405.304 390.462 405.562C390.757 405.819 390.99 406.141 391.141 406.502C391.293 406.863 391.361 407.253 391.338 407.644C391.316 408.035 391.205 408.416 391.013 408.757L346.076 488.119C343.938 491.893 339.779 493.696 335.215 492.81L335.047 492.781L300.857 486.795C294.293 485.482 287.481 486.291 281.407 489.105C275.333 491.92 270.312 496.594 267.07 502.451C264.19 507.421 262.549 513.011 262.286 518.749C262.023 524.486 263.145 530.203 265.558 535.416C267.907 540.543 271.457 545.028 275.907 548.492C280.357 551.957 285.576 554.298 291.122 555.318L291.361 555.365L306.091 557.835C312.388 559.067 318.914 558.296 324.752 555.632C330.589 552.968 335.447 548.543 338.643 542.978L439.301 365.21C440.577 362.985 441.318 360.494 441.466 357.934C441.613 355.373 441.164 352.814 440.152 350.457Z" fill="black"/>
</g>
<path d="M30 848.967L30 890.033" stroke="url(#paint0_linear_30_209)" stroke-width="2" stroke-linecap="round"/>
<path d="M48.4029 848.967L48.4029 890.033" stroke="url(#paint1_linear_30_209)" stroke-width="2" stroke-linecap="round"/>
<path d="M66.8058 848.967L66.8058 890.033" stroke="url(#paint2_linear_30_209)" stroke-width="2" stroke-linecap="round"/>
<path d="M76.0073 848.967L76.0073 890.033" stroke="url(#paint3_linear_30_209)" stroke-width="2" stroke-linecap="round"/>
<path d="M85.2087 854.1L85.2087 884.9" stroke="url(#paint4_linear_30_209)" stroke-width="2" stroke-linecap="round"/>
<path d="M94.4102 848.967L94.4102 890.033" stroke="url(#paint5_linear_30_209)" stroke-width="2" stroke-linecap="round"/>
<path d="M250.835 856.667L250.835 882.333" stroke="url(#paint6_linear_30_209)" stroke-width="2" stroke-linecap="round"/>
<path d="M260.036 848.967L260.036 890.033" stroke="url(#paint7_linear_30_209)" stroke-width="2" stroke-linecap="round"/>
<path d="M269.238 831L269.238 908" stroke="url(#paint8_linear_30_209)" stroke-width="2" stroke-linecap="round"/>
<path d="M278.439 848.967L278.439 890.033" stroke="url(#paint9_linear_30_209)" stroke-width="2" stroke-linecap="round"/>
<path d="M287.641 848.967L287.641 890.033" stroke="url(#paint10_linear_30_209)" stroke-width="2" stroke-linecap="round"/>
<path d="M296.842 859.233L296.842 879.767" stroke="url(#paint11_linear_30_209)" stroke-width="2" stroke-linecap="round"/>
<path d="M306.043 848.967L306.043 890.033" stroke="url(#paint12_linear_30_209)" stroke-width="2" stroke-linecap="round"/>
<path d="M314.095 842.55L314.095 896.45" stroke="url(#paint13_linear_30_209)" stroke-width="2" stroke-linecap="round"/>
<path d="M324.446 848.967L324.446 890.033" stroke="url(#paint14_linear_30_209)" stroke-width="2" stroke-linecap="round"/>
<path d="M333.648 856.667L333.648 882.333" stroke="url(#paint15_linear_30_209)" stroke-width="2" stroke-linecap="round"/>
<path d="M342.849 848.967L342.849 890.033" stroke="url(#paint16_linear_30_209)" stroke-width="2" stroke-linecap="round"/>
<path d="M353.201 839.983L353.201 899.016" stroke="url(#paint17_linear_30_209)" stroke-width="2" stroke-linecap="round"/>
<path d="M361.252 848.967L361.252 890.033" stroke="url(#paint18_linear_30_209)" stroke-width="2" stroke-linecap="round"/>
<path d="M369.303 861.8L369.303 877.2" stroke="url(#paint19_linear_30_209)" stroke-width="2" stroke-linecap="round"/>
<path d="M379.655 848.967L379.655 890.033" stroke="url(#paint20_linear_30_209)" stroke-width="2" stroke-linecap="round"/>
<path d="M388.857 859.233L388.857 874.633" stroke="url(#paint21_linear_30_209)" stroke-width="2" stroke-linecap="round"/>
<path d="M176.073 834.85L176.073 904.15" stroke="url(#paint22_linear_30_209)" stroke-width="2" stroke-linecap="round"/>
<path d="M186.425 848.967L186.425 890.033" stroke="url(#paint23_linear_30_209)" stroke-width="2" stroke-linecap="round"/>
<path d="M195.626 852.817L195.626 886.183" stroke="url(#paint24_linear_30_209)" stroke-width="2" stroke-linecap="round"/>
<path d="M204.828 859.233L204.828 879.767" stroke="url(#paint25_linear_30_209)" stroke-width="2" stroke-linecap="round"/>
<path d="M214.029 848.967L214.029 890.033" stroke="url(#paint26_linear_30_209)" stroke-width="2" stroke-linecap="round"/>
<path d="M223.23 848.967L223.23 890.033" stroke="url(#paint27_linear_30_209)" stroke-width="2" stroke-linecap="round"/>
<path d="M232.432 841.267L232.432 896.45" stroke="url(#paint28_linear_30_209)" stroke-width="2" stroke-linecap="round"/>
<path d="M241.633 848.967L241.633 890.033" stroke="url(#paint29_linear_30_209)" stroke-width="2" stroke-linecap="round"/>
<path d="M103.612 836.133L103.612 902.867" stroke="url(#paint30_linear_30_209)" stroke-width="2" stroke-linecap="round"/>
<path d="M112.813 848.967L112.813 890.033" stroke="url(#paint31_linear_30_209)" stroke-width="2" stroke-linecap="round"/>
<path d="M122.014 848.967L122.014 890.033" stroke="url(#paint32_linear_30_209)" stroke-width="2" stroke-linecap="round"/>
<path d="M131.216 841.267L131.216 896.45" stroke="url(#paint33_linear_30_209)" stroke-width="2" stroke-linecap="round"/>
<path d="M140.417 848.967L140.417 890.033" stroke="url(#paint34_linear_30_209)" stroke-width="2" stroke-linecap="round"/>
<path d="M158.82 848.967L158.82 890.033" stroke="url(#paint35_linear_30_209)" stroke-width="2" stroke-linecap="round"/>
<path d="M168.022 859.233L168.022 879.767" stroke="url(#paint36_linear_30_209)" stroke-width="2" stroke-linecap="round"/>
<path d="M149.619 859.233L149.619 879.767" stroke="url(#paint37_linear_30_209)" stroke-width="2" stroke-linecap="round"/>
<path d="M30 848.967L30 890.033" stroke="url(#paint38_linear_30_209)" stroke-width="2" stroke-linecap="round"/>
<path d="M39.2014 864.367L39.2014 874.633" stroke="url(#paint39_linear_30_209)" stroke-width="2" stroke-linecap="round"/>
<path d="M48.4029 848.967L48.4029 890.033" stroke="url(#paint40_linear_30_209)" stroke-width="2" stroke-linecap="round"/>
<path d="M57.6043 859.233L57.6043 879.767" stroke="url(#paint41_linear_30_209)" stroke-width="2" stroke-linecap="round"/>
<path d="M66.8058 848.967L66.8058 890.033" stroke="url(#paint42_linear_30_209)" stroke-width="2" stroke-linecap="round"/>
<path d="M76.0073 841.267L76.0073 896.45" stroke="url(#paint43_linear_30_209)" stroke-width="2" stroke-linecap="round"/>
<path d="M94.4102 848.967L94.4102 890.033" stroke="url(#paint44_linear_30_209)" stroke-width="2" stroke-linecap="round"/>
<g opacity="0.1" clip-path="url(#clip2_30_209)">
<path d="M288.745 273.297C295.654 269.482 301.146 263.646 304.438 256.621C306.989 251.217 308.185 245.303 307.926 239.364C307.667 233.424 305.961 227.629 302.949 222.454C299.419 216.365 294.008 211.505 287.481 208.563C280.954 205.62 273.64 204.742 266.571 206.053L230.558 212.798C228.268 213.217 225.9 212.926 223.79 211.966C221.68 211.006 219.934 209.426 218.8 207.449L134.193 62.3485C131.8 58.2257 128.062 54.9939 123.569 53.1628C119.075 51.3318 114.082 51.0057 109.376 52.2361L35.4366 71.4301C33.2191 72.0066 31.167 73.0685 29.4376 74.5345C27.7082 76.0004 26.3474 77.8315 25.4596 79.8872C24.5717 81.9429 24.1803 84.1688 24.3155 86.3942C24.4506 88.6195 25.1087 90.7853 26.2392 92.7254L45.6869 126.078C48.0842 130.215 51.8359 133.456 56.3464 135.285C60.8569 137.115 65.8676 137.429 70.5828 136.178L132.879 119.565C135.267 118.946 137.799 119.119 140.075 120.057C142.35 120.994 144.238 122.642 145.439 124.74L226.965 264.556C230.353 270.402 235.547 275.067 241.813 277.891C248.08 280.715 255.102 281.555 261.887 280.293L277.091 277.447C281.182 276.689 285.119 275.287 288.745 273.297Z" fill="black"/>
</g>
</g>
<defs>
<linearGradient id="paint0_linear_30_209" x1="28.5" y1="848.967" x2="28.5" y2="890.033" gradientUnits="userSpaceOnUse">
<stop stop-color="#FA17DB"/>
<stop offset="1" stop-color="#5917DB"/>
</linearGradient>
<linearGradient id="paint1_linear_30_209" x1="46.9029" y1="848.967" x2="46.9029" y2="890.033" gradientUnits="userSpaceOnUse">
<stop stop-color="#FA17DB"/>
<stop offset="1" stop-color="#5917DB"/>
</linearGradient>
<linearGradient id="paint2_linear_30_209" x1="65.3058" y1="848.967" x2="65.3058" y2="890.033" gradientUnits="userSpaceOnUse">
<stop stop-color="#FA17DB"/>
<stop offset="1" stop-color="#5917DB"/>
</linearGradient>
<linearGradient id="paint3_linear_30_209" x1="74.5073" y1="848.967" x2="74.5073" y2="890.033" gradientUnits="userSpaceOnUse">
<stop stop-color="#FA17DB"/>
<stop offset="1" stop-color="#5917DB"/>
</linearGradient>
<linearGradient id="paint4_linear_30_209" x1="83.7087" y1="854.1" x2="83.7087" y2="884.9" gradientUnits="userSpaceOnUse">
<stop stop-color="#FA17DB"/>
<stop offset="1" stop-color="#5917DB"/>
</linearGradient>
<linearGradient id="paint5_linear_30_209" x1="92.9102" y1="848.967" x2="92.9102" y2="890.033" gradientUnits="userSpaceOnUse">
<stop stop-color="#FA17DB"/>
<stop offset="1" stop-color="#5917DB"/>
</linearGradient>
<linearGradient id="paint6_linear_30_209" x1="249.335" y1="856.667" x2="249.335" y2="882.333" gradientUnits="userSpaceOnUse">
<stop stop-color="#FA17DB"/>
<stop offset="1" stop-color="#5917DB"/>
</linearGradient>
<linearGradient id="paint7_linear_30_209" x1="258.536" y1="848.967" x2="258.536" y2="890.033" gradientUnits="userSpaceOnUse">
<stop stop-color="#FA17DB"/>
<stop offset="1" stop-color="#5917DB"/>
</linearGradient>
<linearGradient id="paint8_linear_30_209" x1="267.738" y1="831" x2="267.738" y2="908" gradientUnits="userSpaceOnUse">
<stop stop-color="#FA17DB"/>
<stop offset="1" stop-color="#5917DB"/>
</linearGradient>
<linearGradient id="paint9_linear_30_209" x1="276.939" y1="848.967" x2="276.939" y2="890.033" gradientUnits="userSpaceOnUse">
<stop stop-color="#FA17DB"/>
<stop offset="1" stop-color="#5917DB"/>
</linearGradient>
<linearGradient id="paint10_linear_30_209" x1="286.141" y1="848.967" x2="286.141" y2="890.033" gradientUnits="userSpaceOnUse">
<stop stop-color="#FA17DB"/>
<stop offset="1" stop-color="#5917DB"/>
</linearGradient>
<linearGradient id="paint11_linear_30_209" x1="295.342" y1="859.233" x2="295.342" y2="879.767" gradientUnits="userSpaceOnUse">
<stop stop-color="#FA17DB"/>
<stop offset="1" stop-color="#5917DB"/>
</linearGradient>
<linearGradient id="paint12_linear_30_209" x1="304.543" y1="848.967" x2="304.543" y2="890.033" gradientUnits="userSpaceOnUse">
<stop stop-color="#FA17DB"/>
<stop offset="1" stop-color="#5917DB"/>
</linearGradient>
<linearGradient id="paint13_linear_30_209" x1="312.595" y1="842.55" x2="312.595" y2="896.45" gradientUnits="userSpaceOnUse">
<stop stop-color="#FA17DB"/>
<stop offset="1" stop-color="#5917DB"/>
</linearGradient>
<linearGradient id="paint14_linear_30_209" x1="322.946" y1="848.967" x2="322.946" y2="890.033" gradientUnits="userSpaceOnUse">
<stop stop-color="#FA17DB"/>
<stop offset="1" stop-color="#5917DB"/>
</linearGradient>
<linearGradient id="paint15_linear_30_209" x1="332.148" y1="856.667" x2="332.148" y2="882.333" gradientUnits="userSpaceOnUse">
<stop stop-color="#FA17DB"/>
<stop offset="1" stop-color="#5917DB"/>
</linearGradient>
<linearGradient id="paint16_linear_30_209" x1="341.349" y1="848.967" x2="341.349" y2="890.033" gradientUnits="userSpaceOnUse">
<stop stop-color="#FA17DB"/>
<stop offset="1" stop-color="#5917DB"/>
</linearGradient>
<linearGradient id="paint17_linear_30_209" x1="351.701" y1="839.983" x2="351.701" y2="899.016" gradientUnits="userSpaceOnUse">
<stop stop-color="#FA17DB"/>
<stop offset="1" stop-color="#5917DB"/>
</linearGradient>
<linearGradient id="paint18_linear_30_209" x1="359.752" y1="848.967" x2="359.752" y2="890.033" gradientUnits="userSpaceOnUse">
<stop stop-color="#FA17DB"/>
<stop offset="1" stop-color="#5917DB"/>
</linearGradient>
<linearGradient id="paint19_linear_30_209" x1="367.803" y1="861.8" x2="367.803" y2="877.2" gradientUnits="userSpaceOnUse">
<stop stop-color="#FA17DB"/>
<stop offset="1" stop-color="#5917DB"/>
</linearGradient>
<linearGradient id="paint20_linear_30_209" x1="378.155" y1="848.967" x2="378.155" y2="890.033" gradientUnits="userSpaceOnUse">
<stop stop-color="#FA17DB"/>
<stop offset="1" stop-color="#5917DB"/>
</linearGradient>
<linearGradient id="paint21_linear_30_209" x1="387.357" y1="859.233" x2="387.357" y2="874.633" gradientUnits="userSpaceOnUse">
<stop stop-color="#FA17DB"/>
<stop offset="1" stop-color="#5917DB"/>
</linearGradient>
<linearGradient id="paint22_linear_30_209" x1="174.573" y1="834.85" x2="174.573" y2="904.15" gradientUnits="userSpaceOnUse">
<stop stop-color="#FA17DB"/>
<stop offset="1" stop-color="#5917DB"/>
</linearGradient>
<linearGradient id="paint23_linear_30_209" x1="184.925" y1="848.967" x2="184.925" y2="890.033" gradientUnits="userSpaceOnUse">
<stop stop-color="#FA17DB"/>
<stop offset="1" stop-color="#5917DB"/>
</linearGradient>
<linearGradient id="paint24_linear_30_209" x1="194.126" y1="852.817" x2="194.126" y2="886.183" gradientUnits="userSpaceOnUse">
<stop stop-color="#FA17DB"/>
<stop offset="1" stop-color="#5917DB"/>
</linearGradient>
<linearGradient id="paint25_linear_30_209" x1="203.328" y1="859.233" x2="203.328" y2="879.767" gradientUnits="userSpaceOnUse">
<stop stop-color="#FA17DB"/>
<stop offset="1" stop-color="#5917DB"/>
</linearGradient>
<linearGradient id="paint26_linear_30_209" x1="212.529" y1="848.967" x2="212.529" y2="890.033" gradientUnits="userSpaceOnUse">
<stop stop-color="#FA17DB"/>
<stop offset="1" stop-color="#5917DB"/>
</linearGradient>
<linearGradient id="paint27_linear_30_209" x1="221.73" y1="848.967" x2="221.73" y2="890.033" gradientUnits="userSpaceOnUse">
<stop stop-color="#FA17DB"/>
<stop offset="1" stop-color="#5917DB"/>
</linearGradient>
<linearGradient id="paint28_linear_30_209" x1="230.932" y1="841.267" x2="230.932" y2="896.45" gradientUnits="userSpaceOnUse">
<stop stop-color="#FA17DB"/>
<stop offset="1" stop-color="#5917DB"/>
</linearGradient>
<linearGradient id="paint29_linear_30_209" x1="240.133" y1="848.967" x2="240.133" y2="890.033" gradientUnits="userSpaceOnUse">
<stop stop-color="#FA17DB"/>
<stop offset="1" stop-color="#5917DB"/>
</linearGradient>
<linearGradient id="paint30_linear_30_209" x1="102.112" y1="836.133" x2="102.112" y2="902.867" gradientUnits="userSpaceOnUse">
<stop stop-color="#FA17DB"/>
<stop offset="1" stop-color="#5917DB"/>
</linearGradient>
<linearGradient id="paint31_linear_30_209" x1="111.313" y1="848.967" x2="111.313" y2="890.033" gradientUnits="userSpaceOnUse">
<stop stop-color="#FA17DB"/>
<stop offset="1" stop-color="#5917DB"/>
</linearGradient>
<linearGradient id="paint32_linear_30_209" x1="120.514" y1="848.967" x2="120.514" y2="890.033" gradientUnits="userSpaceOnUse">
<stop stop-color="#FA17DB"/>
<stop offset="1" stop-color="#5917DB"/>
</linearGradient>
<linearGradient id="paint33_linear_30_209" x1="129.716" y1="841.267" x2="129.716" y2="896.45" gradientUnits="userSpaceOnUse">
<stop stop-color="#FA17DB"/>
<stop offset="1" stop-color="#5917DB"/>
</linearGradient>
<linearGradient id="paint34_linear_30_209" x1="138.917" y1="848.967" x2="138.917" y2="890.033" gradientUnits="userSpaceOnUse">
<stop stop-color="#FA17DB"/>
<stop offset="1" stop-color="#5917DB"/>
</linearGradient>
<linearGradient id="paint35_linear_30_209" x1="157.32" y1="848.967" x2="157.32" y2="890.033" gradientUnits="userSpaceOnUse">
<stop stop-color="#FA17DB"/>
<stop offset="1" stop-color="#5917DB"/>
</linearGradient>
<linearGradient id="paint36_linear_30_209" x1="166.522" y1="859.233" x2="166.522" y2="879.767" gradientUnits="userSpaceOnUse">
<stop stop-color="#FA17DB"/>
<stop offset="1" stop-color="#5917DB"/>
</linearGradient>
<linearGradient id="paint37_linear_30_209" x1="148.119" y1="859.233" x2="148.119" y2="879.767" gradientUnits="userSpaceOnUse">
<stop stop-color="#FA17DB"/>
<stop offset="1" stop-color="#5917DB"/>
</linearGradient>
<linearGradient id="paint38_linear_30_209" x1="28.5" y1="848.967" x2="28.5" y2="890.033" gradientUnits="userSpaceOnUse">
<stop stop-color="#FA17DB"/>
<stop offset="1" stop-color="#5917DB"/>
</linearGradient>
<linearGradient id="paint39_linear_30_209" x1="37.7014" y1="864.367" x2="37.7014" y2="874.633" gradientUnits="userSpaceOnUse">
<stop stop-color="#FA17DB"/>
<stop offset="1" stop-color="#5917DB"/>
</linearGradient>
<linearGradient id="paint40_linear_30_209" x1="46.9029" y1="848.967" x2="46.9029" y2="890.033" gradientUnits="userSpaceOnUse">
<stop stop-color="#FA17DB"/>
<stop offset="1" stop-color="#5917DB"/>
</linearGradient>
<linearGradient id="paint41_linear_30_209" x1="56.1043" y1="859.233" x2="56.1043" y2="879.767" gradientUnits="userSpaceOnUse">
<stop stop-color="#FA17DB"/>
<stop offset="1" stop-color="#5917DB"/>
</linearGradient>
<linearGradient id="paint42_linear_30_209" x1="65.3058" y1="848.967" x2="65.3058" y2="890.033" gradientUnits="userSpaceOnUse">
<stop stop-color="#FA17DB"/>
<stop offset="1" stop-color="#5917DB"/>
</linearGradient>
<linearGradient id="paint43_linear_30_209" x1="74.5073" y1="841.267" x2="74.5073" y2="896.45" gradientUnits="userSpaceOnUse">
<stop stop-color="#FA17DB"/>
<stop offset="1" stop-color="#5917DB"/>
</linearGradient>
<linearGradient id="paint44_linear_30_209" x1="92.9102" y1="848.967" x2="92.9102" y2="890.033" gradientUnits="userSpaceOnUse">
<stop stop-color="#FA17DB"/>
<stop offset="1" stop-color="#5917DB"/>
</linearGradient>
<clipPath id="clip0_30_209">
<rect width="418" height="880" fill="white"/>
</clipPath>
<clipPath id="clip1_30_209">
<rect width="329" height="329" fill="white" transform="translate(216.108 196) rotate(29.5201)"/>
</clipPath>
<clipPath id="clip2_30_209">
<rect width="347.5" height="342.296" fill="white" transform="matrix(-0.876266 0.481827 0.503715 0.86387 236.431 -64.0376)"/>
</clipPath>
</defs>
</svg>
