<svg width="190" height="127" viewBox="0 0 190 127" fill="none" xmlns="http://www.w3.org/2000/svg">
<path d="M2.235 94.105C1.41167 94.105 0.87 93.845 0.609999 93.325C0.349999 92.8483 0.328332 92.3067 0.544999 91.7C0.718333 91.05 1.065 90.4867 1.585 90.01C2.06167 89.49 2.64667 89.23 3.34 89.23C4.38 89.23 5.68 88.84 7.24 88.06C8.8 87.2367 10.5767 86.0883 12.57 84.615C14.52 83.1417 16.5783 81.4083 18.745 79.415C20.955 77.4217 23.1867 75.255 25.44 72.915C27.6933 70.5317 29.8817 68.0617 32.005 65.505C34.1717 62.905 36.165 60.2833 37.985 57.64C39.8483 54.9967 41.4733 52.375 42.86 49.775C44.29 47.1317 45.395 44.6183 46.175 42.235C46.9983 39.8083 47.41 37.5767 47.41 35.54C47.41 34.89 47.67 34.4133 48.19 34.11C48.7533 33.7633 49.4033 33.59 50.14 33.59C50.8767 33.59 51.505 33.7633 52.025 34.11C52.5883 34.4133 52.87 34.89 52.87 35.54C52.87 37.6633 52.415 40.025 51.505 42.625C50.6383 45.1817 49.425 47.8683 47.865 50.685C46.305 53.5017 44.485 56.3617 42.405 59.265C40.325 62.1683 38.0717 65.05 35.645 67.91C33.2617 70.77 30.7917 73.5 28.235 76.1C25.6783 78.6567 23.1433 81.04 20.63 83.25C18.1167 85.4167 15.7117 87.3233 13.415 88.97C11.1183 90.6167 9.01667 91.895 7.11 92.805C5.16 93.6717 3.535 94.105 2.235 94.105ZM28.69 94.105C26.2633 94.105 24.335 93.3683 22.905 91.895C21.5183 90.3783 20.7383 88.2767 20.565 85.59C20.3917 82.86 20.89 79.675 22.06 76.035L33.5 41.26C35.1033 36.19 36.88 32.5067 38.83 30.21C40.8233 27.9133 43.2067 26.765 45.98 26.765C47.3667 26.765 48.5583 27.1333 49.555 27.87C50.595 28.6067 51.3967 29.625 51.96 30.925C52.5667 32.225 52.87 33.7633 52.87 35.54C52.87 36.3633 52.5883 36.97 52.025 37.36C51.505 37.75 50.8767 37.945 50.14 37.945C49.4033 37.945 48.7533 37.75 48.19 37.36C47.67 36.97 47.41 36.3633 47.41 35.54C47.41 34.8033 47.345 34.175 47.215 33.655C47.085 33.135 46.8683 32.7233 46.565 32.42C46.2617 32.1167 45.8067 31.965 45.2 31.965C44.5067 31.965 43.835 32.2683 43.185 32.875C42.5783 33.4383 41.9283 34.5 41.235 36.06C40.5417 37.5767 39.6967 39.7433 38.7 42.56L27.39 77.14C26.5233 79.7833 26.0467 82.015 25.96 83.835C25.9167 85.655 26.2417 87.02 26.935 87.93C27.6283 88.7967 28.625 89.23 29.925 89.23C30.5317 89.23 30.9867 89.49 31.29 90.01C31.5933 90.4867 31.7017 91.05 31.615 91.7C31.5283 92.3067 31.2467 92.8483 30.77 93.325C30.2933 93.845 29.6 94.105 28.69 94.105ZM30.0261 94.105C29.4194 94.105 28.9644 93.845 28.6611 93.325C28.3577 92.8483 28.2494 92.3067 28.3361 91.7C28.3794 91.05 28.6394 90.4867 29.1161 90.01C29.5927 89.49 30.2861 89.23 31.1961 89.23C32.2361 89.23 33.4277 88.71 34.7711 87.67C36.0711 86.63 37.6094 85.005 39.3861 82.795C41.1627 80.5417 43.2644 77.6167 45.6911 74.02C48.1177 70.38 50.9561 65.9817 54.2061 60.825C54.5961 60.2183 55.0944 59.9583 55.7011 60.045C56.3511 60.1317 56.8711 60.4133 57.2611 60.89C57.6511 61.3667 57.6727 61.8867 57.3261 62.45C53.6427 68.69 50.4577 73.8683 47.7711 77.985C45.1277 82.0583 42.8094 85.2867 40.8161 87.67C38.8227 90.01 36.9811 91.6783 35.2911 92.675C33.5577 93.6283 31.8027 94.105 30.0261 94.105ZM50.9561 126.735C48.6594 126.735 46.7744 126.085 45.3011 124.785C43.8711 123.528 43.1561 121.882 43.1561 119.845C43.1561 118.328 43.4377 116.812 44.0011 115.295C44.6077 113.822 45.4744 112.327 46.6011 110.81C47.7277 109.293 49.1361 107.733 50.8261 106.13C52.5594 104.57 54.5527 102.923 56.8061 101.19C57.9327 100.367 58.9944 99.5867 59.9911 98.85C61.0311 98.1133 62.0711 97.3767 63.1111 96.64C64.1511 95.9467 65.2344 95.2317 66.3611 94.495L70.8461 80.65C69.5027 82.7733 68.1161 84.6583 66.6861 86.305C65.2994 87.9517 63.8694 89.36 62.3961 90.53C60.9227 91.6567 59.4494 92.5017 57.9761 93.065C56.5027 93.6717 55.0077 93.975 53.4911 93.975C51.4977 93.975 49.9377 93.4983 48.8111 92.545C47.7277 91.5483 47.1427 90.0967 47.0561 88.19C46.9694 86.24 47.3811 83.8783 48.2911 81.105L54.7911 61.605C55.0944 60.7383 55.4411 60.175 55.8311 59.915C56.2644 59.655 56.8927 59.525 57.7161 59.525C59.0594 59.525 59.9044 59.7417 60.2511 60.175C60.6411 60.565 60.6844 61.1933 60.3811 62.06L53.4911 82.6C53.1011 83.6833 52.8411 84.7017 52.7111 85.655C52.6244 86.6083 52.7761 87.3667 53.1661 87.93C53.5994 88.4933 54.4011 88.775 55.5711 88.775C57.0877 88.775 58.7344 88.125 60.5111 86.825C62.2877 85.525 64.1077 83.705 65.9711 81.365C67.8777 79.025 69.7411 76.2733 71.5611 73.11C73.3811 69.9033 75.0711 66.415 76.6311 62.645L76.9561 61.605C77.2594 60.7383 77.6061 60.175 77.9961 59.915C78.4294 59.655 79.0577 59.525 79.8811 59.525C81.2244 59.525 82.0694 59.7417 82.4161 60.175C82.8061 60.565 82.8494 61.1933 82.5461 62.06L67.2061 109.25C66.2094 112.37 65.1477 115.035 64.0211 117.245C62.9377 119.455 61.7677 121.253 60.5111 122.64C59.2544 124.07 57.8244 125.11 56.2211 125.76C54.6611 126.41 52.9061 126.735 50.9561 126.735ZM51.9311 121.73C53.2311 121.73 54.4444 121.297 55.5711 120.43C56.6977 119.563 57.7594 118.198 58.7561 116.335C59.7527 114.472 60.7277 112.023 61.6811 108.99L64.0861 101.645C63.4794 102.035 62.8727 102.447 62.2661 102.88C61.6594 103.313 61.0527 103.747 60.4461 104.18C59.8394 104.613 59.2327 105.068 58.6261 105.545C56.8927 106.975 55.3977 108.297 54.1411 109.51C52.9277 110.767 51.9311 111.937 51.1511 113.02C50.4144 114.103 49.8511 115.122 49.4611 116.075C49.1144 117.072 48.9411 118.025 48.9411 118.935C48.9411 119.455 49.0494 119.932 49.2661 120.365C49.4827 120.798 49.8077 121.123 50.2411 121.34C50.7177 121.6 51.2811 121.73 51.9311 121.73ZM71.3036 97.94C70.4803 98.4167 69.8086 98.525 69.2886 98.265C68.7686 98.005 68.4219 97.5717 68.2486 96.965C68.0753 96.3583 68.0969 95.7083 68.3136 95.015C68.4869 94.365 68.8553 93.8883 69.4186 93.585C72.8853 91.5917 75.9836 89.685 78.7136 87.865C81.4003 86.0017 83.7836 84.16 85.8636 82.34C87.9003 80.52 89.7203 78.635 91.3236 76.685C92.9269 74.735 94.3353 72.6767 95.5486 70.51C96.8053 68.3 97.9319 65.9167 98.9286 63.36C99.1453 62.7967 99.5136 62.4717 100.034 62.385C100.597 62.2983 101.16 62.385 101.724 62.645C102.287 62.905 102.72 63.295 103.024 63.815C103.37 64.2917 103.414 64.8333 103.154 65.44C101.81 68.69 100.272 71.7233 98.5386 74.54C96.8053 77.3133 94.7036 79.9567 92.2336 82.47C89.7636 84.9833 86.8386 87.4967 83.4586 90.01C80.0353 92.5233 75.9836 95.1667 71.3036 97.94ZM112.709 93.975C111.105 93.975 109.914 93.65 109.134 93C108.354 92.3933 107.877 91.6133 107.704 90.66C107.53 89.7067 107.53 88.71 107.704 87.67C107.877 86.63 108.115 85.6983 108.419 84.875C108.679 84.1383 109.047 83.1417 109.524 81.885C110.044 80.585 110.607 79.155 111.214 77.595C111.864 76.035 112.47 74.475 113.034 72.915C113.64 71.355 114.139 69.925 114.529 68.625C114.875 67.325 114.94 66.4367 114.724 65.96C114.55 65.44 114.009 65.18 113.099 65.18C112.102 65.18 111.04 65.3967 109.914 65.83C108.787 66.22 107.617 66.6317 106.404 67.065C105.19 67.455 103.912 67.65 102.569 67.65C101.789 67.65 101.117 67.325 100.554 66.675C99.9903 66.025 99.5353 65.2017 99.1886 64.205C98.8853 63.165 98.7336 62.0817 98.7336 60.955C98.7336 60.045 98.8853 59.2 99.1886 58.42C99.4919 57.5967 99.9686 56.925 100.619 56.405C101.312 55.885 102.179 55.625 103.219 55.625C104.085 55.625 104.779 55.9067 105.299 56.47C105.819 57.0333 106.079 57.7483 106.079 58.615C106.079 59.1783 105.992 59.8067 105.819 60.5C105.689 61.15 105.472 61.8217 105.169 62.515C105.602 62.515 106.382 62.2767 107.509 61.8C108.635 61.3233 109.935 60.8467 111.409 60.37C112.925 59.8933 114.442 59.655 115.959 59.655C117.302 59.655 118.364 59.98 119.144 60.63C119.967 61.28 120.465 62.2767 120.639 63.62C120.812 64.92 120.617 66.6317 120.054 68.755C119.75 69.9683 119.295 71.3767 118.689 72.98C118.082 74.5833 117.454 76.23 116.804 77.92C116.154 79.61 115.525 81.1917 114.919 82.665C114.355 84.1383 113.922 85.33 113.619 86.24C113.185 87.4533 113.077 88.2333 113.294 88.58C113.51 88.8833 113.814 89.035 114.204 89.035C114.637 89.035 115.07 88.905 115.504 88.645C115.98 88.3417 116.457 87.93 116.934 87.41C117.454 86.8467 117.995 86.1967 118.559 85.46C118.905 85.0267 119.23 84.7883 119.534 84.745C119.88 84.6583 120.314 84.7883 120.834 85.135C121.527 85.5683 121.939 86.0017 122.069 86.435C122.242 86.8683 122.22 87.3017 122.004 87.735C121.614 88.385 120.985 89.2083 120.119 90.205C119.252 91.2017 118.19 92.09 116.934 92.87C115.72 93.6067 114.312 93.975 112.709 93.975Z" fill="white"/>
<path d="M122.185 99C121.535 99 121.058 98.805 120.755 98.415C120.495 98.025 120.365 97.3533 120.365 96.4C120.365 95.4033 120.495 94.7317 120.755 94.385C121.058 93.995 121.535 93.8 122.185 93.8H129.01V43.295H122.185C121.535 43.295 121.058 43.1 120.755 42.71C120.495 42.32 120.365 41.6483 120.365 40.695C120.365 39.6983 120.495 39.0267 120.755 38.68C121.058 38.29 121.535 38.095 122.185 38.095H141.62C142.27 38.095 142.725 38.29 142.985 38.68C143.245 39.0267 143.375 39.6983 143.375 40.695C143.375 41.6483 143.245 42.32 142.985 42.71C142.725 43.1 142.27 43.295 141.62 43.295H134.665V93.8H141.62C142.27 93.8 142.725 93.995 142.985 94.385C143.245 94.7317 143.375 95.4033 143.375 96.4C143.375 97.3533 143.245 98.025 142.985 98.415C142.725 98.805 142.27 99 141.62 99H122.185Z" fill="url(#paint0_linear_16_188)"/>
<path d="M139.038 67.7004C139.038 67.7004 138.78 64.6031 139.603 61.5183C140.603 57.7705 141.451 55.6666 143.558 52.362C145.832 48.7942 147.598 47.0229 150.902 44.283C153.904 41.7945 155.685 40.3078 159.377 38.8969C163.518 37.3141 166.281 36.5449 170.676 37.2811C174.273 37.8837 176.499 38.6568 179.15 41.0513C182.016 43.6391 182.902 45.9783 183.67 49.669C184.401 53.1824 183.784 55.3024 183.105 58.8253C182.436 62.2931 181.736 64.2015 180.28 67.4429C178.998 70.2979 178.075 72.2186 176.125 74.974C174.621 77.099 173.697 78.2639 171.806 80.0883C167.677 84.0719 158.125 86.2057 158.125 86.2057M158.125 86.2057C132.52 87.3841 149.863 33.7064 170.676 61.5183M158.125 86.2057C158.125 86.2057 159.812 99.5422 161.5 97.8519" stroke="url(#paint1_linear_16_188)" stroke-width="5" stroke-linecap="round"/>
<path d="M172 96C172 98.7614 168.948 101 165.184 101C159.777 101 158.112 99.5948 158.112 96.8333C157.26 94.3333 161.419 91 165.184 91C168.948 91 172 93.2386 172 96Z" fill="#842AF7"/>
<defs>
<linearGradient id="paint0_linear_16_188" x1="129" y1="54" x2="129" y2="96" gradientUnits="userSpaceOnUse">
<stop stop-color="#FA17DB"/>
<stop offset="1" stop-color="#842AF7"/>
</linearGradient>
<linearGradient id="paint1_linear_16_188" x1="161.5" y1="37" x2="160.606" y2="98.0001" gradientUnits="userSpaceOnUse">
<stop stop-color="#FA17DB"/>
<stop offset="1" stop-color="#842AF7"/>
</linearGradient>
</defs>
</svg>
