<svg width="90" height="90" viewBox="0 0 90 90" fill="none" xmlns="http://www.w3.org/2000/svg">
<rect width="90" height="90" rx="10" fill="url(#paint0_linear_104_201)"/>
<g filter="url(#filter0_f_104_201)">
<path d="M80 44.5C80 65.8849 63.7641 83 44 83C24.2359 83 8 65.8849 8 44.5C8 23.1151 24.2359 6 44 6C63.7641 6 80 23.1151 80 44.5Z" stroke="#6126D5" stroke-width="4"/>
</g>
<path d="M86.25 45.5C86.25 67.4991 69.5283 85.25 49 85.25C28.4717 85.25 11.75 67.4991 11.75 45.5C11.75 23.5009 28.4717 5.75 49 5.75C69.5283 5.75 86.25 23.5009 86.25 45.5Z" stroke="#D4BEFF" stroke-opacity="0.8" stroke-width="1.5"/>
<rect width="90" height="90" rx="10" fill="url(#paint1_linear_104_201)"/>
<g filter="url(#filter1_f_104_201)">
<path d="M80 44.5C80 65.8849 63.7641 83 44 83C24.2359 83 8 65.8849 8 44.5C8 23.1151 24.2359 6 44 6C63.7641 6 80 23.1151 80 44.5Z" stroke="#6126D5" stroke-width="4"/>
</g>
<path d="M86.25 45.5C86.25 67.4991 69.5283 85.25 49 85.25C28.4717 85.25 11.75 67.4991 11.75 45.5C11.75 23.5009 28.4717 5.75 49 5.75C69.5283 5.75 86.25 23.5009 86.25 45.5Z" stroke="#D4BEFF" stroke-opacity="0.8" stroke-width="1.5"/>
<defs>
<filter id="filter0_f_104_201" x="2" y="0" width="84" height="89" filterUnits="userSpaceOnUse" color-interpolation-filters="sRGB">
<feFlood flood-opacity="0" result="BackgroundImageFix"/>
<feBlend mode="normal" in="SourceGraphic" in2="BackgroundImageFix" result="shape"/>
<feGaussianBlur stdDeviation="2" result="effect1_foregroundBlur_104_201"/>
</filter>
<filter id="filter1_f_104_201" x="2" y="0" width="84" height="89" filterUnits="userSpaceOnUse" color-interpolation-filters="sRGB">
<feFlood flood-opacity="0" result="BackgroundImageFix"/>
<feBlend mode="normal" in="SourceGraphic" in2="BackgroundImageFix" result="shape"/>
<feGaussianBlur stdDeviation="2" result="effect1_foregroundBlur_104_201"/>
</filter>
<linearGradient id="paint0_linear_104_201" x1="42.6563" y1="1.40625" x2="41.7188" y2="90" gradientUnits="userSpaceOnUse">
<stop stop-color="#BEAEE6"/>
<stop offset="1" stop-color="#543AB6"/>
</linearGradient>
<linearGradient id="paint1_linear_104_201" x1="42.6563" y1="1.40625" x2="41.7188" y2="90" gradientUnits="userSpaceOnUse">
<stop stop-color="#BEAEE6"/>
<stop offset="1" stop-color="#543AB6"/>
</linearGradient>
</defs>
</svg>
